G04 (created by PCBNEW (2013-07-07 BZR 4022)-stable) date 4/23/2015 6:26:41 AM*
%MOIN*%
G04 Gerber Fmt 3.4, Leading zero omitted, Abs format*
%FSLAX34Y34*%
G01*
G70*
G90*
G04 APERTURE LIST*
%ADD10C,0.00590551*%
%ADD11C,0.055*%
%ADD12C,0.0590551*%
%ADD13R,0.055X0.055*%
%ADD14R,0.065X0.065*%
%ADD15C,0.065*%
%ADD16C,0.16*%
%ADD17C,0.035*%
%ADD18C,0.01*%
G04 APERTURE END LIST*
G54D10*
G54D11*
X81580Y-59340D03*
X84580Y-59340D03*
G54D12*
X77780Y-53620D03*
X78780Y-53620D03*
X79780Y-53620D03*
X80780Y-53620D03*
X81780Y-53620D03*
X82780Y-53620D03*
X83780Y-53620D03*
G54D13*
X81540Y-56140D03*
G54D11*
X84540Y-56140D03*
X77860Y-59500D03*
X79860Y-59500D03*
G54D14*
X75240Y-57860D03*
G54D15*
X75240Y-56860D03*
G54D14*
X86340Y-56540D03*
G54D15*
X86340Y-57540D03*
G54D11*
X78460Y-56200D03*
X79460Y-56200D03*
G54D16*
X73600Y-50980D03*
X73540Y-61720D03*
X88780Y-50940D03*
X88860Y-61760D03*
G54D17*
X82080Y-55400D03*
X80680Y-58020D03*
X79380Y-58000D03*
X79040Y-52500D03*
X76720Y-55920D03*
G54D18*
X82780Y-53620D02*
X82780Y-54940D01*
X82320Y-55400D02*
X82080Y-55400D01*
X82780Y-54940D02*
X82320Y-55400D01*
X75240Y-57860D02*
X77800Y-57860D01*
X77800Y-57860D02*
X79460Y-56200D01*
X79400Y-58020D02*
X80680Y-58020D01*
X79380Y-58000D02*
X79400Y-58020D01*
X78460Y-56200D02*
X78460Y-55860D01*
X77780Y-55180D02*
X77780Y-53620D01*
X78460Y-55860D02*
X77780Y-55180D01*
X81580Y-59340D02*
X81580Y-57280D01*
X81780Y-54900D02*
X81780Y-53620D01*
X80620Y-56060D02*
X81780Y-54900D01*
X80620Y-56320D02*
X80620Y-56060D01*
X81580Y-57280D02*
X80620Y-56320D01*
X76960Y-52500D02*
X79040Y-52500D01*
X76060Y-53400D02*
X76960Y-52500D01*
X76060Y-55260D02*
X76060Y-53400D01*
X76720Y-55920D02*
X76060Y-55260D01*
X86340Y-56540D02*
X86340Y-52600D01*
X80200Y-52200D02*
X78780Y-53620D01*
X85940Y-52200D02*
X80200Y-52200D01*
X86340Y-52600D02*
X85940Y-52200D01*
M02*
