M48
;DRILL file {Pcbnew (2013-07-07 BZR 4022)-stable} date 4/23/2015 6:26:37 AM
;FORMAT={-:-/ absolute / metric / decimal}
FMAT,2
METRIC,TZ
T1C0.600
T2C0.635
T3C0.813
T4C3.048
%
G90
G05
M71
T1
X197.561Y-136.195
X200.101Y-136.195
X202.641Y-136.195
X205.181Y-136.195
X207.721Y-136.195
X210.261Y-136.195
X212.801Y-136.195
T2
X194.869Y-142.037
X200.762Y-133.35
X201.625Y-147.32
X204.927Y-147.371
X208.483Y-140.716
T3
X191.11Y-144.424
X191.11Y-146.964
X197.764Y-151.13
X199.288Y-142.748
X201.828Y-142.748
X202.844Y-151.13
X207.112Y-142.596
X207.213Y-150.724
X214.732Y-142.596
X214.833Y-150.724
X219.304Y-143.612
X219.304Y-146.152
T4
X186.792Y-156.769
X186.944Y-129.489
X225.501Y-129.388
X225.704Y-156.87
T0
M30
