G04 (created by PCBNEW (2013-07-07 BZR 4022)-stable) date 4/23/2015 8:07:26 PM*
%MOIN*%
G04 Gerber Fmt 3.4, Leading zero omitted, Abs format*
%FSLAX34Y34*%
G01*
G70*
G90*
G04 APERTURE LIST*
%ADD10C,0.00590551*%
%ADD11C,0.055*%
%ADD12C,0.0590551*%
%ADD13R,0.055X0.055*%
%ADD14R,0.065X0.065*%
%ADD15C,0.065*%
%ADD16C,0.16*%
%ADD17C,0.035*%
%ADD18C,0.01*%
G04 APERTURE END LIST*
G54D10*
G54D11*
X92480Y-67820D03*
X95480Y-67820D03*
G54D12*
X88920Y-62460D03*
X89920Y-62460D03*
X90920Y-62460D03*
X91920Y-62460D03*
X92920Y-62460D03*
X93920Y-62460D03*
X94920Y-62460D03*
G54D13*
X92440Y-65160D03*
G54D11*
X95440Y-65160D03*
G54D14*
X86440Y-71120D03*
G54D15*
X87440Y-71120D03*
G54D14*
X96140Y-71100D03*
G54D15*
X97140Y-71100D03*
G54D11*
X88900Y-66500D03*
X88900Y-65500D03*
X91180Y-71200D03*
X92180Y-71200D03*
G54D16*
X82580Y-60240D03*
X101120Y-60180D03*
X101120Y-72180D03*
X82600Y-72180D03*
G54D17*
X92480Y-66000D03*
X90760Y-67020D03*
G54D18*
X88900Y-65500D02*
X88900Y-64500D01*
X92920Y-61460D02*
X93920Y-62460D01*
X87740Y-61460D02*
X92920Y-61460D01*
X87700Y-61420D02*
X87740Y-61460D01*
X87700Y-63300D02*
X87700Y-61420D01*
X88900Y-64500D02*
X87700Y-63300D01*
X86440Y-71120D02*
X86440Y-67960D01*
X86440Y-67960D02*
X88900Y-65500D01*
X92440Y-65960D02*
X92440Y-65160D01*
X92480Y-66000D02*
X92440Y-65960D01*
X92480Y-67820D02*
X92480Y-66580D01*
X91480Y-63900D02*
X92920Y-62460D01*
X91480Y-65580D02*
X91480Y-63900D01*
X92480Y-66580D02*
X91480Y-65580D01*
X90920Y-66860D02*
X90920Y-62460D01*
X90760Y-67020D02*
X90920Y-66860D01*
X96140Y-71100D02*
X94100Y-71100D01*
X89920Y-66920D02*
X89920Y-62460D01*
X94100Y-71100D02*
X89920Y-66920D01*
M02*
