G04 (created by PCBNEW (2013-07-07 BZR 4022)-stable) date 4/23/2015 8:07:26 PM*
%MOIN*%
G04 Gerber Fmt 3.4, Leading zero omitted, Abs format*
%FSLAX34Y34*%
G01*
G70*
G90*
G04 APERTURE LIST*
%ADD10C,0.00590551*%
%ADD11C,0.055*%
%ADD12C,0.0590551*%
%ADD13R,0.055X0.055*%
%ADD14R,0.065X0.065*%
%ADD15C,0.065*%
%ADD16C,0.16*%
%ADD17C,0.035*%
%ADD18C,0.01*%
G04 APERTURE END LIST*
G54D10*
G54D11*
X92480Y-67820D03*
X95480Y-67820D03*
G54D12*
X88920Y-62460D03*
X89920Y-62460D03*
X90920Y-62460D03*
X91920Y-62460D03*
X92920Y-62460D03*
X93920Y-62460D03*
X94920Y-62460D03*
G54D13*
X92440Y-65160D03*
G54D11*
X95440Y-65160D03*
G54D14*
X86440Y-71120D03*
G54D15*
X87440Y-71120D03*
G54D14*
X96140Y-71100D03*
G54D15*
X97140Y-71100D03*
G54D11*
X88900Y-66500D03*
X88900Y-65500D03*
X91180Y-71200D03*
X92180Y-71200D03*
G54D16*
X82580Y-60240D03*
X101120Y-60180D03*
X101120Y-72180D03*
X82600Y-72180D03*
G54D17*
X92480Y-66000D03*
X90760Y-67020D03*
G54D18*
X97140Y-71100D02*
X97140Y-71860D01*
X88880Y-72560D02*
X87440Y-71120D01*
X96440Y-72560D02*
X88880Y-72560D01*
X97140Y-71860D02*
X96440Y-72560D01*
X95440Y-65160D02*
X95440Y-64520D01*
X93440Y-63980D02*
X91920Y-62460D01*
X94900Y-63980D02*
X93440Y-63980D01*
X95440Y-64520D02*
X94900Y-63980D01*
X95480Y-67820D02*
X95480Y-65200D01*
X95480Y-65200D02*
X95440Y-65160D01*
X97140Y-71100D02*
X97140Y-69480D01*
X97140Y-69480D02*
X95480Y-67820D01*
X92180Y-71200D02*
X92180Y-70300D01*
X91800Y-66680D02*
X92480Y-66000D01*
X91800Y-69920D02*
X91800Y-66680D01*
X92180Y-70300D02*
X91800Y-69920D01*
X88900Y-66500D02*
X91100Y-66500D01*
X91100Y-66500D02*
X92440Y-65160D01*
X88920Y-62460D02*
X88920Y-63780D01*
X87640Y-65240D02*
X88900Y-66500D01*
X87640Y-65060D02*
X87640Y-65240D01*
X88920Y-63780D02*
X87640Y-65060D01*
X91180Y-71200D02*
X91180Y-67440D01*
X91180Y-67440D02*
X90760Y-67020D01*
G54D10*
G36*
X99509Y-61110D02*
X99450Y-72590D01*
X97719Y-72590D01*
X97719Y-71187D01*
X97709Y-70959D01*
X97641Y-70797D01*
X97544Y-70766D01*
X97473Y-70837D01*
X97473Y-70695D01*
X97442Y-70598D01*
X97227Y-70520D01*
X96999Y-70530D01*
X96837Y-70598D01*
X96806Y-70695D01*
X97140Y-71029D01*
X97473Y-70695D01*
X97473Y-70837D01*
X97210Y-71100D01*
X97544Y-71433D01*
X97641Y-71402D01*
X97719Y-71187D01*
X97719Y-72590D01*
X97473Y-72590D01*
X97473Y-71504D01*
X97140Y-71170D01*
X97069Y-71241D01*
X97069Y-71100D01*
X96735Y-70766D01*
X96715Y-70773D01*
X96715Y-70725D01*
X96677Y-70633D01*
X96606Y-70563D01*
X96514Y-70525D01*
X96415Y-70524D01*
X96009Y-70524D01*
X96009Y-67895D01*
X95998Y-67687D01*
X95969Y-67618D01*
X95969Y-65235D01*
X95958Y-65027D01*
X95900Y-64887D01*
X95807Y-64862D01*
X95737Y-64933D01*
X95737Y-64792D01*
X95712Y-64699D01*
X95515Y-64630D01*
X95465Y-64632D01*
X95465Y-62352D01*
X95382Y-62151D01*
X95229Y-61998D01*
X95028Y-61914D01*
X94812Y-61914D01*
X94611Y-61997D01*
X94458Y-62150D01*
X94420Y-62242D01*
X94382Y-62151D01*
X94229Y-61998D01*
X94028Y-61914D01*
X93812Y-61914D01*
X93611Y-61997D01*
X93458Y-62150D01*
X93420Y-62242D01*
X93382Y-62151D01*
X93229Y-61998D01*
X93028Y-61914D01*
X92812Y-61914D01*
X92611Y-61997D01*
X92458Y-62150D01*
X92422Y-62235D01*
X92397Y-62174D01*
X92302Y-62148D01*
X92231Y-62218D01*
X92231Y-62077D01*
X92205Y-61982D01*
X92000Y-61909D01*
X91783Y-61920D01*
X91634Y-61982D01*
X91608Y-62077D01*
X91920Y-62389D01*
X92231Y-62077D01*
X92231Y-62218D01*
X91990Y-62460D01*
X92302Y-62771D01*
X92397Y-62745D01*
X92420Y-62679D01*
X92457Y-62768D01*
X92610Y-62921D01*
X92811Y-63005D01*
X93027Y-63005D01*
X93228Y-62922D01*
X93381Y-62769D01*
X93419Y-62677D01*
X93457Y-62768D01*
X93610Y-62921D01*
X93811Y-63005D01*
X94027Y-63005D01*
X94228Y-62922D01*
X94381Y-62769D01*
X94419Y-62677D01*
X94457Y-62768D01*
X94610Y-62921D01*
X94811Y-63005D01*
X95027Y-63005D01*
X95228Y-62922D01*
X95381Y-62769D01*
X95465Y-62568D01*
X95465Y-62352D01*
X95465Y-64632D01*
X95307Y-64641D01*
X95167Y-64699D01*
X95142Y-64792D01*
X95440Y-65089D01*
X95737Y-64792D01*
X95737Y-64933D01*
X95510Y-65160D01*
X95807Y-65457D01*
X95900Y-65432D01*
X95969Y-65235D01*
X95969Y-67618D01*
X95940Y-67547D01*
X95847Y-67522D01*
X95777Y-67593D01*
X95777Y-67452D01*
X95752Y-67359D01*
X95737Y-67353D01*
X95737Y-65527D01*
X95440Y-65230D01*
X95369Y-65301D01*
X95369Y-65160D01*
X95072Y-64862D01*
X94979Y-64887D01*
X94910Y-65084D01*
X94921Y-65292D01*
X94979Y-65432D01*
X95072Y-65457D01*
X95369Y-65160D01*
X95369Y-65301D01*
X95142Y-65527D01*
X95167Y-65620D01*
X95364Y-65689D01*
X95572Y-65678D01*
X95712Y-65620D01*
X95737Y-65527D01*
X95737Y-67353D01*
X95555Y-67290D01*
X95347Y-67301D01*
X95207Y-67359D01*
X95182Y-67452D01*
X95480Y-67749D01*
X95777Y-67452D01*
X95777Y-67593D01*
X95550Y-67820D01*
X95847Y-68117D01*
X95940Y-68092D01*
X96009Y-67895D01*
X96009Y-70524D01*
X95777Y-70524D01*
X95777Y-68187D01*
X95480Y-67890D01*
X95409Y-67961D01*
X95409Y-67820D01*
X95112Y-67522D01*
X95019Y-67547D01*
X94950Y-67744D01*
X94961Y-67952D01*
X95019Y-68092D01*
X95112Y-68117D01*
X95409Y-67820D01*
X95409Y-67961D01*
X95182Y-68187D01*
X95207Y-68280D01*
X95404Y-68349D01*
X95612Y-68338D01*
X95752Y-68280D01*
X95777Y-68187D01*
X95777Y-70524D01*
X95765Y-70524D01*
X95673Y-70562D01*
X95603Y-70633D01*
X95565Y-70725D01*
X95564Y-70824D01*
X95564Y-71474D01*
X95602Y-71566D01*
X95673Y-71636D01*
X95765Y-71674D01*
X95864Y-71675D01*
X96514Y-71675D01*
X96606Y-71637D01*
X96676Y-71566D01*
X96714Y-71474D01*
X96714Y-71426D01*
X96735Y-71433D01*
X97069Y-71100D01*
X97069Y-71241D01*
X96806Y-71504D01*
X96837Y-71601D01*
X97052Y-71679D01*
X97280Y-71669D01*
X97442Y-71601D01*
X97473Y-71504D01*
X97473Y-72590D01*
X93005Y-72590D01*
X93005Y-67716D01*
X92925Y-67523D01*
X92777Y-67375D01*
X92584Y-67295D01*
X92376Y-67294D01*
X92183Y-67374D01*
X92100Y-67457D01*
X92100Y-66804D01*
X92479Y-66424D01*
X92564Y-66425D01*
X92720Y-66360D01*
X92840Y-66241D01*
X92904Y-66084D01*
X92905Y-65915D01*
X92840Y-65759D01*
X92765Y-65684D01*
X92856Y-65647D01*
X92926Y-65576D01*
X92964Y-65484D01*
X92965Y-65385D01*
X92965Y-64835D01*
X92927Y-64743D01*
X92856Y-64673D01*
X92764Y-64635D01*
X92665Y-64634D01*
X92231Y-64634D01*
X92231Y-62842D01*
X91920Y-62530D01*
X91608Y-62842D01*
X91634Y-62937D01*
X91839Y-63010D01*
X92056Y-62999D01*
X92205Y-62937D01*
X92231Y-62842D01*
X92231Y-64634D01*
X92115Y-64634D01*
X92023Y-64672D01*
X91953Y-64743D01*
X91915Y-64835D01*
X91914Y-64934D01*
X91914Y-65260D01*
X90975Y-66200D01*
X89342Y-66200D01*
X89197Y-66055D01*
X89064Y-65999D01*
X89197Y-65945D01*
X89344Y-65797D01*
X89424Y-65604D01*
X89425Y-65396D01*
X89345Y-65203D01*
X89197Y-65055D01*
X89004Y-64975D01*
X88796Y-64974D01*
X88603Y-65054D01*
X88455Y-65202D01*
X88375Y-65395D01*
X88374Y-65550D01*
X87974Y-65150D01*
X89132Y-63992D01*
X89197Y-63894D01*
X89219Y-63780D01*
X89220Y-63780D01*
X89220Y-62926D01*
X89228Y-62922D01*
X89381Y-62769D01*
X89419Y-62677D01*
X89457Y-62768D01*
X89610Y-62921D01*
X89811Y-63005D01*
X90027Y-63005D01*
X90228Y-62922D01*
X90381Y-62769D01*
X90419Y-62677D01*
X90457Y-62768D01*
X90610Y-62921D01*
X90811Y-63005D01*
X91027Y-63005D01*
X91228Y-62922D01*
X91381Y-62769D01*
X91417Y-62684D01*
X91442Y-62745D01*
X91537Y-62771D01*
X91849Y-62460D01*
X91537Y-62148D01*
X91442Y-62174D01*
X91419Y-62240D01*
X91382Y-62151D01*
X91229Y-61998D01*
X91028Y-61914D01*
X90812Y-61914D01*
X90611Y-61997D01*
X90458Y-62150D01*
X90420Y-62242D01*
X90382Y-62151D01*
X90229Y-61998D01*
X90028Y-61914D01*
X89812Y-61914D01*
X89611Y-61997D01*
X89458Y-62150D01*
X89420Y-62242D01*
X89382Y-62151D01*
X89229Y-61998D01*
X89028Y-61914D01*
X88812Y-61914D01*
X88611Y-61997D01*
X88458Y-62150D01*
X88374Y-62351D01*
X88374Y-62567D01*
X88457Y-62768D01*
X88610Y-62921D01*
X88620Y-62925D01*
X88620Y-63655D01*
X87427Y-64847D01*
X87362Y-64945D01*
X87340Y-65060D01*
X87340Y-65240D01*
X87362Y-65354D01*
X87427Y-65452D01*
X88375Y-66399D01*
X88374Y-66603D01*
X88454Y-66797D01*
X88602Y-66944D01*
X88795Y-67024D01*
X89003Y-67025D01*
X89197Y-66945D01*
X89342Y-66800D01*
X90391Y-66800D01*
X90335Y-66935D01*
X90334Y-67104D01*
X90399Y-67260D01*
X90518Y-67380D01*
X90675Y-67444D01*
X90760Y-67445D01*
X90880Y-67564D01*
X90880Y-70757D01*
X90735Y-70902D01*
X90655Y-71095D01*
X90654Y-71303D01*
X90734Y-71497D01*
X90882Y-71644D01*
X91075Y-71724D01*
X91283Y-71725D01*
X91477Y-71645D01*
X91624Y-71497D01*
X91680Y-71364D01*
X91734Y-71497D01*
X91882Y-71644D01*
X92075Y-71724D01*
X92283Y-71725D01*
X92477Y-71645D01*
X92624Y-71497D01*
X92704Y-71304D01*
X92705Y-71096D01*
X92625Y-70903D01*
X92480Y-70757D01*
X92480Y-70300D01*
X92479Y-70299D01*
X92457Y-70185D01*
X92392Y-70087D01*
X92392Y-70087D01*
X92100Y-69795D01*
X92100Y-68182D01*
X92182Y-68264D01*
X92375Y-68344D01*
X92583Y-68345D01*
X92777Y-68265D01*
X92924Y-68117D01*
X93004Y-67924D01*
X93005Y-67716D01*
X93005Y-72590D01*
X88019Y-72590D01*
X88019Y-71207D01*
X88009Y-70979D01*
X87941Y-70817D01*
X87844Y-70786D01*
X87773Y-70857D01*
X87773Y-70715D01*
X87742Y-70618D01*
X87527Y-70540D01*
X87299Y-70550D01*
X87137Y-70618D01*
X87106Y-70715D01*
X87440Y-71049D01*
X87773Y-70715D01*
X87773Y-70857D01*
X87510Y-71120D01*
X87844Y-71453D01*
X87941Y-71422D01*
X88019Y-71207D01*
X88019Y-72590D01*
X87773Y-72590D01*
X87773Y-71524D01*
X87440Y-71190D01*
X87369Y-71261D01*
X87369Y-71120D01*
X87035Y-70786D01*
X87015Y-70793D01*
X87015Y-70745D01*
X86977Y-70653D01*
X86906Y-70583D01*
X86814Y-70545D01*
X86715Y-70544D01*
X86065Y-70544D01*
X85973Y-70582D01*
X85903Y-70653D01*
X85865Y-70745D01*
X85864Y-70844D01*
X85864Y-71494D01*
X85902Y-71586D01*
X85973Y-71656D01*
X86065Y-71694D01*
X86164Y-71695D01*
X86814Y-71695D01*
X86906Y-71657D01*
X86976Y-71586D01*
X87014Y-71494D01*
X87014Y-71446D01*
X87035Y-71453D01*
X87369Y-71120D01*
X87369Y-71261D01*
X87106Y-71524D01*
X87137Y-71621D01*
X87352Y-71699D01*
X87580Y-71689D01*
X87742Y-71621D01*
X87773Y-71524D01*
X87773Y-72590D01*
X84790Y-72590D01*
X84929Y-61110D01*
X99509Y-61110D01*
X99509Y-61110D01*
G37*
G54D18*
X99509Y-61110D02*
X99450Y-72590D01*
X97719Y-72590D01*
X97719Y-71187D01*
X97709Y-70959D01*
X97641Y-70797D01*
X97544Y-70766D01*
X97473Y-70837D01*
X97473Y-70695D01*
X97442Y-70598D01*
X97227Y-70520D01*
X96999Y-70530D01*
X96837Y-70598D01*
X96806Y-70695D01*
X97140Y-71029D01*
X97473Y-70695D01*
X97473Y-70837D01*
X97210Y-71100D01*
X97544Y-71433D01*
X97641Y-71402D01*
X97719Y-71187D01*
X97719Y-72590D01*
X97473Y-72590D01*
X97473Y-71504D01*
X97140Y-71170D01*
X97069Y-71241D01*
X97069Y-71100D01*
X96735Y-70766D01*
X96715Y-70773D01*
X96715Y-70725D01*
X96677Y-70633D01*
X96606Y-70563D01*
X96514Y-70525D01*
X96415Y-70524D01*
X96009Y-70524D01*
X96009Y-67895D01*
X95998Y-67687D01*
X95969Y-67618D01*
X95969Y-65235D01*
X95958Y-65027D01*
X95900Y-64887D01*
X95807Y-64862D01*
X95737Y-64933D01*
X95737Y-64792D01*
X95712Y-64699D01*
X95515Y-64630D01*
X95465Y-64632D01*
X95465Y-62352D01*
X95382Y-62151D01*
X95229Y-61998D01*
X95028Y-61914D01*
X94812Y-61914D01*
X94611Y-61997D01*
X94458Y-62150D01*
X94420Y-62242D01*
X94382Y-62151D01*
X94229Y-61998D01*
X94028Y-61914D01*
X93812Y-61914D01*
X93611Y-61997D01*
X93458Y-62150D01*
X93420Y-62242D01*
X93382Y-62151D01*
X93229Y-61998D01*
X93028Y-61914D01*
X92812Y-61914D01*
X92611Y-61997D01*
X92458Y-62150D01*
X92422Y-62235D01*
X92397Y-62174D01*
X92302Y-62148D01*
X92231Y-62218D01*
X92231Y-62077D01*
X92205Y-61982D01*
X92000Y-61909D01*
X91783Y-61920D01*
X91634Y-61982D01*
X91608Y-62077D01*
X91920Y-62389D01*
X92231Y-62077D01*
X92231Y-62218D01*
X91990Y-62460D01*
X92302Y-62771D01*
X92397Y-62745D01*
X92420Y-62679D01*
X92457Y-62768D01*
X92610Y-62921D01*
X92811Y-63005D01*
X93027Y-63005D01*
X93228Y-62922D01*
X93381Y-62769D01*
X93419Y-62677D01*
X93457Y-62768D01*
X93610Y-62921D01*
X93811Y-63005D01*
X94027Y-63005D01*
X94228Y-62922D01*
X94381Y-62769D01*
X94419Y-62677D01*
X94457Y-62768D01*
X94610Y-62921D01*
X94811Y-63005D01*
X95027Y-63005D01*
X95228Y-62922D01*
X95381Y-62769D01*
X95465Y-62568D01*
X95465Y-62352D01*
X95465Y-64632D01*
X95307Y-64641D01*
X95167Y-64699D01*
X95142Y-64792D01*
X95440Y-65089D01*
X95737Y-64792D01*
X95737Y-64933D01*
X95510Y-65160D01*
X95807Y-65457D01*
X95900Y-65432D01*
X95969Y-65235D01*
X95969Y-67618D01*
X95940Y-67547D01*
X95847Y-67522D01*
X95777Y-67593D01*
X95777Y-67452D01*
X95752Y-67359D01*
X95737Y-67353D01*
X95737Y-65527D01*
X95440Y-65230D01*
X95369Y-65301D01*
X95369Y-65160D01*
X95072Y-64862D01*
X94979Y-64887D01*
X94910Y-65084D01*
X94921Y-65292D01*
X94979Y-65432D01*
X95072Y-65457D01*
X95369Y-65160D01*
X95369Y-65301D01*
X95142Y-65527D01*
X95167Y-65620D01*
X95364Y-65689D01*
X95572Y-65678D01*
X95712Y-65620D01*
X95737Y-65527D01*
X95737Y-67353D01*
X95555Y-67290D01*
X95347Y-67301D01*
X95207Y-67359D01*
X95182Y-67452D01*
X95480Y-67749D01*
X95777Y-67452D01*
X95777Y-67593D01*
X95550Y-67820D01*
X95847Y-68117D01*
X95940Y-68092D01*
X96009Y-67895D01*
X96009Y-70524D01*
X95777Y-70524D01*
X95777Y-68187D01*
X95480Y-67890D01*
X95409Y-67961D01*
X95409Y-67820D01*
X95112Y-67522D01*
X95019Y-67547D01*
X94950Y-67744D01*
X94961Y-67952D01*
X95019Y-68092D01*
X95112Y-68117D01*
X95409Y-67820D01*
X95409Y-67961D01*
X95182Y-68187D01*
X95207Y-68280D01*
X95404Y-68349D01*
X95612Y-68338D01*
X95752Y-68280D01*
X95777Y-68187D01*
X95777Y-70524D01*
X95765Y-70524D01*
X95673Y-70562D01*
X95603Y-70633D01*
X95565Y-70725D01*
X95564Y-70824D01*
X95564Y-71474D01*
X95602Y-71566D01*
X95673Y-71636D01*
X95765Y-71674D01*
X95864Y-71675D01*
X96514Y-71675D01*
X96606Y-71637D01*
X96676Y-71566D01*
X96714Y-71474D01*
X96714Y-71426D01*
X96735Y-71433D01*
X97069Y-71100D01*
X97069Y-71241D01*
X96806Y-71504D01*
X96837Y-71601D01*
X97052Y-71679D01*
X97280Y-71669D01*
X97442Y-71601D01*
X97473Y-71504D01*
X97473Y-72590D01*
X93005Y-72590D01*
X93005Y-67716D01*
X92925Y-67523D01*
X92777Y-67375D01*
X92584Y-67295D01*
X92376Y-67294D01*
X92183Y-67374D01*
X92100Y-67457D01*
X92100Y-66804D01*
X92479Y-66424D01*
X92564Y-66425D01*
X92720Y-66360D01*
X92840Y-66241D01*
X92904Y-66084D01*
X92905Y-65915D01*
X92840Y-65759D01*
X92765Y-65684D01*
X92856Y-65647D01*
X92926Y-65576D01*
X92964Y-65484D01*
X92965Y-65385D01*
X92965Y-64835D01*
X92927Y-64743D01*
X92856Y-64673D01*
X92764Y-64635D01*
X92665Y-64634D01*
X92231Y-64634D01*
X92231Y-62842D01*
X91920Y-62530D01*
X91608Y-62842D01*
X91634Y-62937D01*
X91839Y-63010D01*
X92056Y-62999D01*
X92205Y-62937D01*
X92231Y-62842D01*
X92231Y-64634D01*
X92115Y-64634D01*
X92023Y-64672D01*
X91953Y-64743D01*
X91915Y-64835D01*
X91914Y-64934D01*
X91914Y-65260D01*
X90975Y-66200D01*
X89342Y-66200D01*
X89197Y-66055D01*
X89064Y-65999D01*
X89197Y-65945D01*
X89344Y-65797D01*
X89424Y-65604D01*
X89425Y-65396D01*
X89345Y-65203D01*
X89197Y-65055D01*
X89004Y-64975D01*
X88796Y-64974D01*
X88603Y-65054D01*
X88455Y-65202D01*
X88375Y-65395D01*
X88374Y-65550D01*
X87974Y-65150D01*
X89132Y-63992D01*
X89197Y-63894D01*
X89219Y-63780D01*
X89220Y-63780D01*
X89220Y-62926D01*
X89228Y-62922D01*
X89381Y-62769D01*
X89419Y-62677D01*
X89457Y-62768D01*
X89610Y-62921D01*
X89811Y-63005D01*
X90027Y-63005D01*
X90228Y-62922D01*
X90381Y-62769D01*
X90419Y-62677D01*
X90457Y-62768D01*
X90610Y-62921D01*
X90811Y-63005D01*
X91027Y-63005D01*
X91228Y-62922D01*
X91381Y-62769D01*
X91417Y-62684D01*
X91442Y-62745D01*
X91537Y-62771D01*
X91849Y-62460D01*
X91537Y-62148D01*
X91442Y-62174D01*
X91419Y-62240D01*
X91382Y-62151D01*
X91229Y-61998D01*
X91028Y-61914D01*
X90812Y-61914D01*
X90611Y-61997D01*
X90458Y-62150D01*
X90420Y-62242D01*
X90382Y-62151D01*
X90229Y-61998D01*
X90028Y-61914D01*
X89812Y-61914D01*
X89611Y-61997D01*
X89458Y-62150D01*
X89420Y-62242D01*
X89382Y-62151D01*
X89229Y-61998D01*
X89028Y-61914D01*
X88812Y-61914D01*
X88611Y-61997D01*
X88458Y-62150D01*
X88374Y-62351D01*
X88374Y-62567D01*
X88457Y-62768D01*
X88610Y-62921D01*
X88620Y-62925D01*
X88620Y-63655D01*
X87427Y-64847D01*
X87362Y-64945D01*
X87340Y-65060D01*
X87340Y-65240D01*
X87362Y-65354D01*
X87427Y-65452D01*
X88375Y-66399D01*
X88374Y-66603D01*
X88454Y-66797D01*
X88602Y-66944D01*
X88795Y-67024D01*
X89003Y-67025D01*
X89197Y-66945D01*
X89342Y-66800D01*
X90391Y-66800D01*
X90335Y-66935D01*
X90334Y-67104D01*
X90399Y-67260D01*
X90518Y-67380D01*
X90675Y-67444D01*
X90760Y-67445D01*
X90880Y-67564D01*
X90880Y-70757D01*
X90735Y-70902D01*
X90655Y-71095D01*
X90654Y-71303D01*
X90734Y-71497D01*
X90882Y-71644D01*
X91075Y-71724D01*
X91283Y-71725D01*
X91477Y-71645D01*
X91624Y-71497D01*
X91680Y-71364D01*
X91734Y-71497D01*
X91882Y-71644D01*
X92075Y-71724D01*
X92283Y-71725D01*
X92477Y-71645D01*
X92624Y-71497D01*
X92704Y-71304D01*
X92705Y-71096D01*
X92625Y-70903D01*
X92480Y-70757D01*
X92480Y-70300D01*
X92479Y-70299D01*
X92457Y-70185D01*
X92392Y-70087D01*
X92392Y-70087D01*
X92100Y-69795D01*
X92100Y-68182D01*
X92182Y-68264D01*
X92375Y-68344D01*
X92583Y-68345D01*
X92777Y-68265D01*
X92924Y-68117D01*
X93004Y-67924D01*
X93005Y-67716D01*
X93005Y-72590D01*
X88019Y-72590D01*
X88019Y-71207D01*
X88009Y-70979D01*
X87941Y-70817D01*
X87844Y-70786D01*
X87773Y-70857D01*
X87773Y-70715D01*
X87742Y-70618D01*
X87527Y-70540D01*
X87299Y-70550D01*
X87137Y-70618D01*
X87106Y-70715D01*
X87440Y-71049D01*
X87773Y-70715D01*
X87773Y-70857D01*
X87510Y-71120D01*
X87844Y-71453D01*
X87941Y-71422D01*
X88019Y-71207D01*
X88019Y-72590D01*
X87773Y-72590D01*
X87773Y-71524D01*
X87440Y-71190D01*
X87369Y-71261D01*
X87369Y-71120D01*
X87035Y-70786D01*
X87015Y-70793D01*
X87015Y-70745D01*
X86977Y-70653D01*
X86906Y-70583D01*
X86814Y-70545D01*
X86715Y-70544D01*
X86065Y-70544D01*
X85973Y-70582D01*
X85903Y-70653D01*
X85865Y-70745D01*
X85864Y-70844D01*
X85864Y-71494D01*
X85902Y-71586D01*
X85973Y-71656D01*
X86065Y-71694D01*
X86164Y-71695D01*
X86814Y-71695D01*
X86906Y-71657D01*
X86976Y-71586D01*
X87014Y-71494D01*
X87014Y-71446D01*
X87035Y-71453D01*
X87369Y-71120D01*
X87369Y-71261D01*
X87106Y-71524D01*
X87137Y-71621D01*
X87352Y-71699D01*
X87580Y-71689D01*
X87742Y-71621D01*
X87773Y-71524D01*
X87773Y-72590D01*
X84790Y-72590D01*
X84929Y-61110D01*
X99509Y-61110D01*
M02*
