M48
;DRILL file {Pcbnew (2013-07-07 BZR 4022)-stable} date 4/23/2015 8:07:23 PM
;FORMAT={-:-/ absolute / metric / decimal}
FMAT,2
METRIC,TZ
T1C0.600
T2C0.635
T3C0.813
T4C3.048
%
G90
G05
M71
T1
X225.857Y-158.648
X228.397Y-158.648
X230.937Y-158.648
X233.477Y-158.648
X236.017Y-158.648
X238.557Y-158.648
X241.097Y-158.648
T2
X230.53Y-170.231
X234.899Y-167.64
T3
X219.558Y-180.645
X222.098Y-180.645
X225.806Y-166.37
X225.806Y-168.91
X231.597Y-180.848
X234.137Y-180.848
X234.798Y-165.506
X234.899Y-172.263
X242.418Y-165.506
X242.519Y-172.263
X244.196Y-180.594
X246.736Y-180.594
T4
X209.753Y-153.01
X209.804Y-183.337
X256.845Y-152.857
X256.845Y-183.337
T0
M30
