M48
;DRILL file {Pcbnew (2013-07-07 BZR 4022)-stable} date 4/17/2015 12:52:01 AM
;FORMAT={-:-/ absolute / metric / decimal}
FMAT,2
METRIC,TZ
T1C0.635
T2C0.813
T3C3.048
%
G90
G05
M71
T1
X140.335Y-207.645
X173.99Y-207.645
X175.895Y-186.69
X181.61Y-186.69
X182.245Y-130.81
X188.595Y-127.635
X216.535Y-187.96
X236.22Y-187.96
X251.46Y-173.99
X252.095Y-167.005
X267.335Y-191.135
X273.05Y-166.37
T2
X146.05Y-153.67
X146.05Y-163.83
X146.05Y-173.355
X146.05Y-183.515
X146.685Y-131.445
X146.685Y-141.605
X154.94Y-120.015
X156.845Y-161.925
X156.845Y-172.085
X159.385Y-152.4
X159.385Y-161.925
X159.385Y-172.085
X159.385Y-183.515
X161.925Y-152.4
X161.925Y-183.515
X164.465Y-143.51
X165.1Y-120.015
X165.1Y-193.675
X167.005Y-143.51
X167.64Y-193.675
X169.545Y-120.65
X170.18Y-135.89
X172.085Y-201.295
X172.72Y-135.89
X174.625Y-201.295
X175.895Y-172.085
X176.53Y-161.925
X178.435Y-132.08
X178.435Y-172.085
X179.07Y-161.925
X179.705Y-120.65
X179.705Y-153.67
X179.705Y-180.975
X180.34Y-208.28
X180.975Y-132.08
X182.245Y-153.67
X182.245Y-180.975
X182.88Y-208.28
X185.42Y-188.595
X186.055Y-127.635
X186.055Y-146.685
X187.96Y-188.595
X188.595Y-127.635
X188.595Y-146.685
X193.04Y-194.31
X193.04Y-212.725
X193.675Y-142.875
X195.58Y-125.095
X195.58Y-194.31
X195.58Y-212.725
X196.215Y-142.875
X198.12Y-125.095
X201.295Y-140.97
X201.93Y-196.85
X203.835Y-140.97
X204.47Y-123.825
X204.47Y-196.85
X204.47Y-213.995
X207.01Y-123.825
X207.01Y-213.995
X208.915Y-140.97
X210.185Y-196.215
X211.455Y-140.97
X212.725Y-196.215
X213.36Y-123.825
X215.9Y-123.825
X215.9Y-212.09
X216.535Y-143.51
X218.44Y-212.09
X219.075Y-143.51
X219.075Y-193.04
X220.98Y-127.
X221.615Y-193.04
X223.52Y-127.
X223.52Y-148.59
X225.425Y-187.325
X226.06Y-148.59
X226.695Y-208.28
X227.965Y-130.81
X227.965Y-187.325
X229.235Y-180.34
X229.235Y-208.28
X229.87Y-155.575
X230.505Y-130.81
X231.775Y-163.195
X231.775Y-172.085
X231.775Y-180.34
X232.41Y-155.575
X234.315Y-163.195
X234.315Y-172.085
X234.95Y-136.525
X234.95Y-202.565
X237.49Y-136.525
X237.49Y-202.565
X241.935Y-143.51
X242.57Y-194.945
X244.475Y-143.51
X245.11Y-194.945
X247.015Y-152.4
X247.65Y-184.785
X248.92Y-173.99
X249.555Y-152.4
X249.555Y-163.195
X250.19Y-184.785
X251.46Y-173.99
X252.095Y-163.195
X259.715Y-168.275
X259.715Y-178.435
X259.715Y-191.77
X259.715Y-201.93
X262.89Y-185.42
X273.05Y-185.42
T3
X135.255Y-222.25
X135.89Y-112.395
X283.21Y-112.395
X283.21Y-221.615
T0
M30
